0
SECTION
2
HEADER
9
$INSUNITS
70
4
9
$ACADVER
1
AC1014
9
$HANDSEED
5
FFFF
0
ENDSEC
0
SECTION
2
TABLES
0
TABLE
2
VPORT
5
8
100
AcDbSymbolTable
0
ENDTAB
0
TABLE
2
LTYPE
5
5
100
AcDbSymbolTable
0
LTYPE
5
14
100
AcDbSymbolTableRecord
100
AcDbLinetypeTableRecord
2
BYBLOCK
70
0
0
LTYPE
5
15
100
AcDbSymbolTableRecord
100
AcDbLinetypeTableRecord
2
BYLAYER
70
0
0
ENDTAB
0
TABLE
2
LAYER
5
2
100
AcDbSymbolTable
70
2
0
LAYER
5
50
100
AcDbSymbolTableRecord
100
AcDbLayerTableRecord
2
0
70
0
6
CONTINUOUS
0
ENDTAB
0
TABLE
2
STYLE
5
3
100
AcDbSymbolTable
70
1
0
STYLE
5
11
100
AcDbSymbolTableRecord
100
AcDbTextStyleTableRecord
2
STANDARD
70
0
0
ENDTAB
0
TABLE
2
VIEW
5
6
100
AcDbSymbolTable
70
0
0
ENDTAB
0
TABLE
2
UCS
5
7
100
AcDbSymbolTable
70
0
0
ENDTAB
0
TABLE
2
APPID
5
9
100
AcDbSymbolTable
70
2
0
APPID
5
12
100
AcDbSymbolTableRecord
100
AcDbRegAppTableRecord
2
ACAD
70
0
0
ENDTAB
0
TABLE
2
DIMSTYLE
5
A
100
AcDbSymbolTable
70
1
0
ENDTAB
0
TABLE
2
BLOCK_RECORD
5
1
100
AcDbSymbolTable
70
1
0
BLOCK_RECORD
5
1F
100
AcDbSymbolTableRecord
100
AcDbBlockTableRecord
2
*MODEL_SPACE
0
BLOCK_RECORD
5
1B
100
AcDbSymbolTableRecord
100
AcDbBlockTableRecord
2
*PAPER_SPACE
0
ENDTAB
0
ENDSEC
0
SECTION
2
BLOCKS
0
BLOCK
5
20
100
AcDbEntity
100
AcDbBlockBegin
2
*MODEL_SPACE
0
ENDBLK
5
21
100
AcDbEntity
100
AcDbBlockEnd
0
BLOCK
5
1C
100
AcDbEntity
100
AcDbBlockBegin
2
*PAPER_SPACE
0
ENDBLK
5
1D
100
AcDbEntity
100
AcDbBlockEnd
0
ENDSEC
0
SECTION
2
ENTITIES
0
CIRCLE
5
100
100
AcDbEntity
8
0
100
AcDbCircle
10
-62.250000000000014
20
-62.250000000000014
30
0
40
2.2500000000000049
210
0
220
0
230
1
0
LWPOLYLINE
5
101
100
AcDbEntity
8
0
100
AcDbPolyline
90
4
70
1
43
0.0
10
-90.000000000000057
20
-70.000000000000014
10
-90
20
69.969823988134522
10
70.108541647078141
20
69.969823988134522
10
70.108541647078098
20
-70.000000000000014
0
LINE
5
102
100
AcDbEntity
8
0
100
AcDbLine
10
-70.000000000000014
20
19.999999999999982
30
0
11
-70.000000000000014
21
-20.000000000000014
31
0
0
CIRCLE
5
103
100
AcDbEntity
8
0
100
AcDbCircle
10
62.250000000000014
20
62.250000000000014
30
0
40
2.249999999999996
210
0
220
0
230
1
0
CIRCLE
5
104
100
AcDbEntity
8
0
100
AcDbCircle
10
62.250000000000014
20
-62.250000000000014
30
0
40
2.249999999999996
210
0
220
0
230
1
0
CIRCLE
5
105
100
AcDbEntity
8
0
100
AcDbCircle
10
-62.250000000000014
20
62.250000000000014
30
0
40
2.249999999999996
210
0
220
0
230
1
0
CIRCLE
5
106
100
AcDbEntity
8
0
100
AcDbCircle
10
-80
20
-40
30
0
40
3.3781999999999974
210
0
220
0
230
1
0
CIRCLE
5
107
100
AcDbEntity
8
0
100
AcDbCircle
10
-80
20
40
30
0
40
3.3781999999999974
210
0
220
0
230
1
0
LINE
5
108
100
AcDbEntity
8
0
100
AcDbLine
10
-62.250000000000014
20
-62.250000000000014
30
0
11
62.250000000000014
21
62.250000000000014
31
0
0
LWPOLYLINE
5
109
100
AcDbEntity
8
0
100
AcDbPolyline
90
6
70
1
43
0.0
10
-64.674450277841231
20
-43.05431569671137
10
-64.674450277841188
20
43.054315696711399
42
-0.036654652571440779
10
-57.693983801285242
20
52.037129551792908
10
-15.478816614635173
20
9.8219623651428485
42
0.29049705577784629
10
-15.478816614635198
20
-9.8219623651428023
10
-57.693983801285285
20
-52.037129551792887
42
-0.036654652571440779
0
LWPOLYLINE
5
110
100
AcDbEntity
8
0
100
AcDbPolyline
90
6
70
1
43
0.0
10
35.704295607787884
20
65.969823988134522
10
-41.04194125315707
20
65.969823988134522
42
0.044368452708047623
10
-52.037129551792901
20
57.69398380128527
10
-9.821962365142813
20
15.478816614635196
42
-0.29049705577784557
10
9.8219623651428023
20
15.478816614635198
10
50.137667699555088
20
55.794521949047493
42
0.059060908281752929
0
LWPOLYLINE
5
111
100
AcDbEntity
8
0
100
AcDbPolyline
90
6
70
1
43
0.0
10
41.479082746440099
20
-66
10
-40.993397259230022
20
-65.999999999999986
42
-0.044552737075005844
10
-52.037129551792887
20
-57.693983801285285
10
-9.8219623651427934
20
-15.478816614635207
42
0.29049705577784546
10
9.8219623651428201
20
-15.478816614635189
10
52.219344426362184
20
-57.876198675854539
42
-0.04326962414156179
0
LINE
5
112
100
AcDbEntity
8
0
100
AcDbLine
10
-57.693983801285285
20
-52.03712955179288
30
0
11
93.20520186309426
21
-52.03712955179288
31
0
0
LINE
5
113
100
AcDbEntity
8
0
100
AcDbLine
10
52.219344426362142
20
-57.876198675854525
30
0
11
202.83826726925284
21
-57.876198675854525
31
0
0
LINE
5
114
100
AcDbEntity
8
0
100
AcDbLine
10
-52.037129551792901
20
57.69398380128527
30
0
11
106.14819706685374
21
57.69398380128527
31
0
0
LWPOLYLINE
5
115
100
AcDbEntity
8
0
100
AcDbPolyline
90
6
70
1
43
0.0
10
57.876198675854518
20
-52.219344426362142
10
15.478816614635205
20
-9.8219623651427952
42
0.29049705577784507
10
15.478816614635207
20
9.8219623651427934
10
55.7945219490475
20
50.137667699555088
42
-0.060039174518335722
10
66.108541647078141
20
35.44679284745358
10
66.108541647078212
20
-41.305871577568126
42
-0.043926433728509989
0
LINE
5
116
100
AcDbEntity
8
0
100
AcDbLine
10
-62.250000000000014
20
62.250000000000014
30
0
11
0
21
0
31
0
0
LINE
5
117
100
AcDbEntity
8
0
100
AcDbLine
10
12.962729428862357
20
-12.962729428862353
30
0
11
62.250000000000014
21
-62.250000000000014
31
0
0
ENDSEC
0
SECTION
2
OBJECTS
0
DICTIONARY
5
C
100
AcDbDictionary
3
ACAD_GROUP
350
D
3
ACAD_MLINESTYLE
350
17
0
DICTIONARY
5
D
100
AcDbDictionary
0
DICTIONARY
5
1A
330
C
100
AcDbDictionary
0
DICTIONARY
5
17
100
AcDbDictionary
0
ENDSEC
0
EOF
