0
SECTION
2
HEADER
9
$INSUNITS
70
4
9
$ACADVER
1
AC1014
9
$HANDSEED
5
FFFF
0
ENDSEC
0
SECTION
2
TABLES
0
TABLE
2
VPORT
5
8
100
AcDbSymbolTable
0
ENDTAB
0
TABLE
2
LTYPE
5
5
100
AcDbSymbolTable
0
LTYPE
5
14
100
AcDbSymbolTableRecord
100
AcDbLinetypeTableRecord
2
BYBLOCK
70
0
0
LTYPE
5
15
100
AcDbSymbolTableRecord
100
AcDbLinetypeTableRecord
2
BYLAYER
70
0
0
ENDTAB
0
TABLE
2
LAYER
5
2
100
AcDbSymbolTable
70
2
0
LAYER
5
50
100
AcDbSymbolTableRecord
100
AcDbLayerTableRecord
2
0
70
0
6
CONTINUOUS
0
ENDTAB
0
TABLE
2
STYLE
5
3
100
AcDbSymbolTable
70
1
0
STYLE
5
11
100
AcDbSymbolTableRecord
100
AcDbTextStyleTableRecord
2
STANDARD
70
0
0
ENDTAB
0
TABLE
2
VIEW
5
6
100
AcDbSymbolTable
70
0
0
ENDTAB
0
TABLE
2
UCS
5
7
100
AcDbSymbolTable
70
0
0
ENDTAB
0
TABLE
2
APPID
5
9
100
AcDbSymbolTable
70
2
0
APPID
5
12
100
AcDbSymbolTableRecord
100
AcDbRegAppTableRecord
2
ACAD
70
0
0
ENDTAB
0
TABLE
2
DIMSTYLE
5
A
100
AcDbSymbolTable
70
1
0
ENDTAB
0
TABLE
2
BLOCK_RECORD
5
1
100
AcDbSymbolTable
70
1
0
BLOCK_RECORD
5
1F
100
AcDbSymbolTableRecord
100
AcDbBlockTableRecord
2
*MODEL_SPACE
0
BLOCK_RECORD
5
1B
100
AcDbSymbolTableRecord
100
AcDbBlockTableRecord
2
*PAPER_SPACE
0
ENDTAB
0
ENDSEC
0
SECTION
2
BLOCKS
0
BLOCK
5
20
100
AcDbEntity
100
AcDbBlockBegin
2
*MODEL_SPACE
0
ENDBLK
5
21
100
AcDbEntity
100
AcDbBlockEnd
0
BLOCK
5
1C
100
AcDbEntity
100
AcDbBlockBegin
2
*PAPER_SPACE
0
ENDBLK
5
1D
100
AcDbEntity
100
AcDbBlockEnd
0
ENDSEC
0
SECTION
2
ENTITIES
0
LWPOLYLINE
5
100
100
AcDbEntity
8
0
100
AcDbPolyline
90
4
70
1
43
0.0
10
-101.59999999999999
20
-76.200000000000003
10
-101.59999999999999
20
76.200000000000003
10
101.59999999999999
20
76.200000000000003
10
101.59999999999999
20
-76.200000000000003
0
LINE
5
101
100
AcDbEntity
8
0
100
AcDbLine
10
101.59999999999999
20
0
30
0
11
11.600000000000001
21
0
31
0
0
LINE
5
102
100
AcDbEntity
8
0
100
AcDbLine
10
11.600000000000001
20
0
30
0
11
-37.400000000000006
21
0
31
0
0
LINE
5
103
100
AcDbEntity
8
0
100
AcDbLine
10
11.600000000000001
20
64.5
30
0
11
-86.400000000000006
21
64.5
31
0
0
LINE
5
104
100
AcDbEntity
8
0
100
AcDbLine
10
-86.400000000000006
20
64.5
30
0
11
-86.400000000000006
21
-64.5
31
0
0
LINE
5
105
100
AcDbEntity
8
0
100
AcDbLine
10
-86.400000000000006
20
-64.5
30
0
11
11.600000000000001
21
-64.5
31
0
0
LINE
5
106
100
AcDbEntity
8
0
100
AcDbLine
10
11.600000000000001
20
-64.5
30
0
11
11.600000000000001
21
64.5
31
0
0
LINE
5
107
100
AcDbEntity
8
0
100
AcDbLine
10
11.600000000000001
20
64.5
30
0
11
-86.400000000000006
21
-64.5
31
0
0
LINE
5
108
100
AcDbEntity
8
0
100
AcDbLine
10
-86.400000000000006
20
64.5
30
0
11
11.600000000000001
21
-64.5
31
0
0
LINE
5
109
100
AcDbEntity
8
0
100
AcDbLine
10
-37.400000000000006
20
-64.5
30
0
11
-37.400000000000006
21
13.500000000000005
31
0
0
LINE
5
110
100
AcDbEntity
8
0
100
AcDbLine
10
-37.400000000000006
20
13.500000000000005
30
0
11
-53.900000000000006
21
13.500000000000005
31
0
0
CIRCLE
5
111
100
AcDbEntity
8
0
100
AcDbCircle
10
-53.900000000000006
20
13.500000000000005
30
0
40
1.5000000000000036
210
0
220
0
230
1
0
CIRCLE
5
112
100
AcDbEntity
8
0
100
AcDbCircle
10
-20.899999999999999
20
13.500000000000005
30
0
40
1.5000000000000036
210
0
220
0
230
1
0
LINE
5
113
100
AcDbEntity
8
0
100
AcDbLine
10
-86.400000000000006
20
-64.5
30
0
11
-61.400000000000006
21
-64.5
31
0
0
LINE
5
114
100
AcDbEntity
8
0
100
AcDbLine
10
-61.400000000000006
20
-64.5
30
0
11
-61.400000000000006
21
-76.5
31
0
0
LINE
5
115
100
AcDbEntity
8
0
100
AcDbLine
10
-61.400000000000006
20
-76.5
30
0
11
-66.400000000000006
21
-76.5
31
0
0
LINE
5
116
100
AcDbEntity
8
0
100
AcDbLine
10
-67.400000000000006
20
-79.000000000000028
30
0
11
-65.400000000000006
21
-79.000000000000028
31
0
0
LINE
5
117
100
AcDbEntity
8
0
100
AcDbLine
10
-65.400000000000006
20
-79.000000000000028
30
0
11
-65.400000000000006
21
-74.000000000000028
31
0
0
LINE
5
118
100
AcDbEntity
8
0
100
AcDbLine
10
-65.400000000000006
20
-74.000000000000028
30
0
11
-67.400000000000006
21
-74.000000000000028
31
0
0
LINE
5
119
100
AcDbEntity
8
0
100
AcDbLine
10
-67.400000000000006
20
-74.000000000000028
30
0
11
-67.400000000000006
21
-79.000000000000028
31
0
0
LINE
5
120
100
AcDbEntity
8
0
100
AcDbLine
10
-67.400000000000006
20
-79.000000000000028
30
0
11
-65.400000000000006
21
-74.000000000000028
31
0
0
LINE
5
121
100
AcDbEntity
8
0
100
AcDbLine
10
-65.400000000000006
20
-79.000000000000028
30
0
11
-67.400000000000006
21
-74.000000000000028
31
0
0
LWPOLYLINE
5
122
100
AcDbEntity
8
0
100
AcDbPolyline
90
4
70
1
43
0.0
10
-57.400000000000006
20
-74.000000000000028
10
-57.400000000000006
20
-79.000000000000028
10
-55.399999999999999
20
-79.000000000000028
10
-55.399999999999999
20
-74.000000000000028
0
LINE
5
123
100
AcDbEntity
8
0
100
AcDbLine
10
101.59999999999999
20
0
30
0
11
66.599999999999994
21
0
31
0
0
LINE
5
124
100
AcDbEntity
8
0
100
AcDbLine
10
38.599999999999994
20
-42.5
30
0
11
94.600000000000009
21
-42.5
31
0
0
LINE
5
125
100
AcDbEntity
8
0
100
AcDbLine
10
94.600000000000009
20
-42.5
30
0
11
94.600000000000009
21
42.5
31
0
0
LINE
5
126
100
AcDbEntity
8
0
100
AcDbLine
10
94.600000000000009
20
42.5
30
0
11
38.599999999999994
21
42.5
31
0
0
LINE
5
127
100
AcDbEntity
8
0
100
AcDbLine
10
38.599999999999994
20
42.5
30
0
11
38.599999999999994
21
-42.5
31
0
0
LINE
5
128
100
AcDbEntity
8
0
100
AcDbLine
10
38.599999999999994
20
-42.5
30
0
11
94.600000000000009
21
42.5
31
0
0
LINE
5
129
100
AcDbEntity
8
0
100
AcDbLine
10
94.600000000000009
20
-42.5
30
0
11
38.599999999999994
21
42.5
31
0
0
LINE
5
130
100
AcDbEntity
8
0
100
AcDbLine
10
66.599999999999994
20
42.5
30
0
11
42.100000000000001
21
42.5
31
0
0
LINE
5
131
100
AcDbEntity
8
0
100
AcDbLine
10
42.100000000000001
20
42.5
30
0
11
42.100000000000001
21
39
31
0
0
CIRCLE
5
132
100
AcDbEntity
8
0
100
AcDbCircle
10
42.100000000000001
20
39
30
0
40
1.4999999999999993
210
0
220
0
230
1
0
LINE
5
133
100
AcDbEntity
8
0
100
AcDbLine
10
42.100000000000001
20
39
30
0
11
42.100000000000001
21
-19.000000000000007
31
0
0
CIRCLE
5
134
100
AcDbEntity
8
0
100
AcDbCircle
10
42.100000000000001
20
-19.000000000000007
30
0
40
1.5000000000000011
210
0
220
0
230
1
0
LINE
5
135
100
AcDbEntity
8
0
100
AcDbLine
10
66.599999999999994
20
0
30
0
11
66.599999999999994
21
-42.5
31
0
0
CIRCLE
5
136
100
AcDbEntity
8
0
100
AcDbCircle
10
91.099999999999994
20
-19.000000000000007
30
0
40
1.5000000000000011
210
0
220
0
230
1
0
CIRCLE
5
137
100
AcDbEntity
8
0
100
AcDbCircle
10
91.099999999999994
20
39
30
0
40
1.4999999999999993
210
0
220
0
230
1
0
LWPOLYLINE
5
138
100
AcDbEntity
8
0
100
AcDbPolyline
90
4
70
1
43
0.0
10
101.59999999999999
20
76.200000000000003
10
-101.59999999999999
20
76.200000000000017
10
-101.59999999999999
20
-86.799999999999997
10
101.59999999999999
20
-86.799999999999997
0
LINE
5
139
100
AcDbEntity
8
0
100
AcDbLine
10
-101.59999999999999
20
76.200000000000003
30
0
11
-94.600000000000009
21
76.200000000000003
31
0
0
LINE
5
140
100
AcDbEntity
8
0
100
AcDbLine
10
-94.600000000000009
20
76.200000000000003
30
0
11
-94.600000000000009
21
69.200000000000003
31
0
0
CIRCLE
5
141
100
AcDbEntity
8
0
100
AcDbCircle
10
-94.600000000000009
20
69.200000000000003
30
0
40
2.5399999999999956
210
0
220
0
230
1
0
LINE
5
142
100
AcDbEntity
8
0
100
AcDbLine
10
0
20
0
30
0
11
0
21
-76.200000000000003
31
0
0
CIRCLE
5
143
100
AcDbEntity
8
0
100
AcDbCircle
10
94.600000000000009
20
69.200000000000003
30
0
40
2.5399999999999956
210
0
220
0
230
1
0
CIRCLE
5
144
100
AcDbEntity
8
0
100
AcDbCircle
10
-94.600000000000009
20
-69.200000000000003
30
0
40
2.5399999999999956
210
0
220
0
230
1
0
CIRCLE
5
145
100
AcDbEntity
8
0
100
AcDbCircle
10
94.600000000000009
20
-69.200000000000003
30
0
40
2.5399999999999956
210
0
220
0
230
1
0
LINE
5
146
100
AcDbEntity
8
0
100
AcDbLine
10
101.59999999999999
20
-76.200000000000003
30
0
11
11.600000000000001
21
-76.200000000000003
31
0
0
LINE
5
147
100
AcDbEntity
8
0
100
AcDbLine
10
11.600000000000001
20
-76.200000000000003
30
0
11
11.600000000000001
21
-86.799999999999997
31
0
0
ENDSEC
0
SECTION
2
OBJECTS
0
DICTIONARY
5
C
100
AcDbDictionary
3
ACAD_GROUP
350
D
3
ACAD_MLINESTYLE
350
17
0
DICTIONARY
5
D
100
AcDbDictionary
0
DICTIONARY
5
1A
330
C
100
AcDbDictionary
0
DICTIONARY
5
17
100
AcDbDictionary
0
ENDSEC
0
EOF
